<svg version="1.1" id="Capa_1" xmlns="http://www.w3.org/2000/svg" xmlns:xlink="http://www.w3.org/1999/xlink"
     viewBox="0 0 228.084 228.084" xml:space="preserve">
<g>
	<path d="M228.084,95.232c0-9.105-7.382-16.487-16.487-16.487h-3.71c4.695-2.906,7.833-8.087,7.833-14.014
		c0-9.106-7.382-16.487-16.487-16.487h-5.359c4.695-2.906,7.833-8.087,7.833-14.014c0-9.105-7.382-16.487-16.487-16.487
		c-7.224,0-69.872-0.001-77.787-0.001c-24.077,0-43.665,19.589-43.665,43.666v39.537c0,12.077,4.417,21.721,12.585,29.631
		l67.6,74.354c5.395,5.947,14.47,7.232,21.369,2.659c7.612-5.045,9.693-15.305,4.648-22.917l-28.135-42.452h60.292
		c9.105,0,16.487-7.382,16.487-16.487c0-5.927-3.138-11.108-7.833-14.014h0.817C220.703,111.72,228.084,104.338,228.084,95.232z"/>
    <path d="M37.885,17.743H9.282C4.156,17.743,0,21.899,0,27.026v100.187c0,5.127,4.156,9.282,9.282,9.282h28.602
		c5.126,0,9.282-4.156,9.282-9.282V27.026C47.167,21.899,43.011,17.743,37.885,17.743z"/>
</g>
</svg>